<?xml version="1.0" encoding="UTF-8"?>
<svg id="Layer_2" data-name="Layer 2" xmlns="http://www.w3.org/2000/svg" viewBox="0 0 97.97 97.97">
  <defs>
    <style>
      .cls-1 {
        fill: none;
      }

      .cls-1, .cls-2 {
        stroke-width: 0px;
      }

      .cls-2 {
        fill: #b60c3f;
      }
    </style>
  </defs>
  <g id="Réteg_1" data-name="Réteg 1">
    <g>
      <path class="cls-2" d="M66.97,42.87c-6.43-2.19-13.44,1.26-15.62,7.69s1.26,13.44,7.69,15.62c1.31.45,2.64.66,3.96.66,5.13,0,9.92-3.23,11.67-8.35,2.19-6.43-1.26-13.44-7.69-15.62ZM69.92,56.88c-1.3,3.82-5.46,5.87-9.28,4.57-3.82-1.3-5.87-5.46-4.57-9.28,1.03-3.04,3.88-4.96,6.93-4.96.78,0,1.57.13,2.35.39,3.82,1.3,5.87,5.46,4.57,9.28Z"/>
      <path class="cls-2" d="M82.97,35.24l-5.36,2.64-2.64-5.36-5.37,2.64-2.64-5.38-5.36,2.64-2.64-5.36-8.54,4.2-3.64,10.68v-9.84h0s0,0,0,0c0-3.11-2.6-5.73-7.19-7.36v-10.38s0-.02,0-.03h0c0-.8-.24-1.99-1.38-3.13-1.8-1.8-5.31-2.87-9.39-2.87h-.02c-6.36,0-10.79,2.47-10.79,6h0v10.41c-4.59,1.62-7.18,4.24-7.19,7.35h0v48.48h0c0,1.08.34,2.7,1.94,4.31,2.91,2.92,9.04,4.72,16,4.72h.04c8.94,0,17.98-3.1,17.98-9.04h0v-8.62l1.64-.81,2.64,5.37,5.36-2.65,2.64,5.37,5.36-2.64,2.64,5.36,8.54-4.2,11.57-33.99-4.2-8.55ZM22.99,26.6h-1.59s1.59,0,1.59,0c0,0,0,0,0,0ZM22.99,19.51c1.66.54,3.63.84,5.77.84,2.21-.01,4.18-.32,5.81-.85v6.76c-.56.51-2.65,1.34-5.79,1.34h-.02c-3.14,0-5.22-.83-5.78-1.34v-6.75ZM34.57,14.35s0,0,0,0h2.5s-2.5,0-2.5,0ZM28.79,13.35c2.5,0,4.34.53,5.27,1-.93.47-2.78,1-5.29,1-2.49.02-4.35-.52-5.29-1,.93-.48,2.77-1.01,5.31-1ZM22.98,14.35h0s-2.27,0-2.27,0h-.23s2.5,0,2.5,0ZM19.27,29.62s.06.07.1.11c1.8,1.8,5.31,2.87,9.39,2.87h.02c4.32,0,7.75-1.14,9.5-2.98,2.42.93,3.48,2.02,3.48,2.5h0c0,1.17-4.56,4.03-12.98,4.03h-.03c-6.33,0-10.9-1.69-12.47-3.26-.3-.3-.48-.59-.48-.78h0c0-.48,1.06-1.56,3.47-2.49ZM28.78,84.63c-6.38.03-10.93-1.68-12.5-3.26-.3-.3-.48-.59-.48-.78h-2.27s2.27,0,2.27,0v-42.04c3.27,1.64,7.88,2.6,12.94,2.6h.04c4.76,0,9.54-.89,12.98-2.61v42.05c0,1.17-4.55,4.04-12.98,4.04ZM71.53,74.2l-2.2,1.08-2.64-5.36-5.36,2.64-2.63-5.35-5.38,2.61-2.65-5.35-3.91,1.92v-8.93l7.7-22.62,2.2-1.08,2.64,5.36,5.36-2.64,2.64,5.37,5.37-2.64,2.64,5.36,5.36-2.64,1.08,2.2-10.23,30.06Z"/>
      <path class="cls-2" d="M33.66,54.95l-4.88-8.25-4.78,8.07c-.28.44-.5.9-.66,1.38-.65,1.97-.18,4.23,1.4,5.81,2.23,2.23,5.84,2.23,8.08,0,1.57-1.58,2.04-3.84,1.39-5.81-.13-.41-.32-.82-.55-1.2Z"/>
    </g>
    <rect class="cls-1" width="97.97" height="97.97"/>
  </g>
</svg>