<?xml version="1.0" encoding="UTF-8"?>
<svg id="Layer_2" data-name="Layer 2" xmlns="http://www.w3.org/2000/svg" viewBox="0 0 578.26 491.27">
  <defs>
    <style>
      .cls-1 {
        fill: #fff;
        stroke-width: 0px;
      }
    </style>
  </defs>
  <g id="Layer_1-2" data-name="Layer 1">
    <path class="cls-1" d="M546.16,60.21c-4.01-5.19-8.4-10.19-13.16-14.95-4.76-4.76-9.76-9.15-14.95-13.16C490.67,10.95,457.85.25,424.94,0h-2.47c-2.28.01-4.54.08-6.8.21-36.84,1.89-73.12,16.9-101.26,45.05l-25.27,25.28-25.27-25.28C235.71,17.11,199.43,2.1,162.6.21c-2.26-.13-4.52-.19-6.8-.21h-2.47c-32.91.25-65.73,10.95-93.12,32.1-5.19,4.01-10.19,8.4-14.95,13.16-4.76,4.76-9.15,9.76-13.16,14.95C10.95,87.59.25,120.42,0,153.32v2.47c.01,2.28.08,4.54.21,6.8,1.89,36.84,16.9,73.12,45.05,101.26l25.27,25.28,14.2,14.2c7.68,7.68,20.13,7.68,27.81,0l.29-.29c7.68-7.68,7.68-20.13,0-27.81l-14.2-14.2-25.27-25.27c-40.04-40.04-44.32-102.32-12.84-147.12,3.78-5.36,8.05-10.48,12.84-15.27,4.79-4.79,9.91-9.06,15.27-12.84,44.8-31.48,107.08-27.2,147.12,12.84l25.27,25.27,13.91,13.91c7.84,7.84,20.56,7.84,28.4,0l13.91-13.91,25.28-25.28c40.04-40.04,102.32-44.31,147.12-12.84,5.36,3.78,10.48,8.05,15.27,12.84,4.79,4.79,9.06,9.91,12.84,15.27,31.48,44.8,27.2,107.08-12.84,147.12l-53.38,53.38-19.79,19.79-33.29,33.3c-7.76,7.76-7.76,20.34,0,28.1,7.76,7.76,20.35,7.76,28.11,0l53.08-53.09,28.11-28.11,25.27-25.28c28.15-28.15,43.16-64.43,45.05-101.26.12-2.26.19-4.52.21-6.8v-2.47c-.25-32.91-10.95-65.73-32.1-93.11Z"/>
    <path class="cls-1" d="M179.78,151.68c-6.16-6.16-16.16-6.17-22.32,0l-5.78,5.78c-6.17,6.16-6.17,16.16,0,22.32l53.98,53.98,55.37,55.37-33.97,33.98-33.17,33.17c-7.76,7.76-11.64,17.93-11.64,28.1s3.88,20.35,11.64,28.11l67.14,67.14c15.52,15.53,40.69,15.53,56.21,0l13.45-13.44c7.34-7.34,8.53-19.26,1.92-27.26-7.58-9.18-21.2-9.66-29.42-1.44l-14.05,14.05-67.14-67.15,150.61-150.61,52.47-52.47c7-7,7-18.35,0-25.35l-2.76-2.76c-7-7-18.35-6.99-25.35,0l-17.17,17.17c-22.2,22.2-51.73,36.03-83.09,37.4-3.05.13-6.11.2-9.19.2-.21,0-.42,0-.63,0-33.24-.1-64.93-14.1-88.43-37.6l-18.67-18.67Z"/>
  </g>
</svg>