<?xml version="1.0" encoding="UTF-8"?>
<svg id="Layer_2" data-name="Layer 2" xmlns="http://www.w3.org/2000/svg" viewBox="0 0 97.97 97.97">
  <defs>
    <style>
      .cls-1 {
        fill: none;
      }

      .cls-1, .cls-2 {
        stroke-width: 0px;
      }

      .cls-2 {
        fill: #b60c3f;
      }
    </style>
  </defs>
  <g id="Réteg_1" data-name="Réteg 1">
    <g>
      <path class="cls-2" d="M40.76,72.06v5c10.29,0,18.66-8.37,18.66-18.66h-5c0,7.53-6.13,13.66-13.66,13.66Z"/>
      <path class="cls-2" d="M82.97,16.25h-26.05v5h17.44l-17.24,17.24c-4.45-3.67-10.15-5.87-16.35-5.87-14.21,0-25.76,11.56-25.76,25.76s11.56,25.76,25.76,25.76,25.76-11.56,25.76-25.76c0-6.2-2.21-11.9-5.87-16.35l17.24-17.24v17.44h5v-20.97h.08v-5ZM40.76,79.14c-11.45,0-20.76-9.31-20.76-20.76s9.31-20.76,20.76-20.76,20.76,9.31,20.76,20.76-9.31,20.76-20.76,20.76Z"/>
    </g>
    <rect class="cls-1" width="97.97" height="97.97"/>
  </g>
</svg>