<?xml version="1.0" encoding="UTF-8"?>
<svg id="Layer_2" data-name="Layer 2" xmlns="http://www.w3.org/2000/svg" viewBox="0 0 97.97 97.97">
  <defs>
    <style>
      .cls-1 {
        fill: none;
      }

      .cls-1, .cls-2 {
        stroke-width: 0px;
      }

      .cls-2 {
        fill: #b60c3f;
      }
    </style>
  </defs>
  <g id="Réteg_1" data-name="Réteg 1">
    <path class="cls-2" d="M74.4,49.2v-7.06h-5.46c-.04-.32-.08-.63-.14-.94l-1.12.22c-.14-.69-.35-1.35-.58-2l1.11-.4c-.64-1.78-1.58-3.4-2.82-4.84l-.9.78c-.45-.52-.94-1.01-1.47-1.47l.78-.9c-1.43-1.24-3.06-2.19-4.84-2.82l-.4,1.11c-.65-.24-1.31-.44-2-.58l.22-1.12c-.58-.11-1.16-.18-1.75-.23v-4.57h-7.06c-2.74-7.04-9.58-12.05-17.57-12.05-10.41,0-18.87,8.47-18.87,18.87s8.46,18.87,18.87,18.87c4.87,0,9.49-1.85,13-5.2l-3.45-3.62c-2.58,2.46-5.97,3.82-9.54,3.82-7.65,0-13.87-6.22-13.87-13.87s6.22-13.87,13.87-13.87c5.25,0,9.83,2.94,12.19,7.26,0,0,0,.02.01.03.41.76.76,1.57,1.02,2.41.01.05.03.09.04.14.12.4.23.81.31,1.22,0,.01,0,.02,0,.03.08.41.14.82.19,1.24,0,.09.02.18.03.27.04.42.06.84.06,1.27,0,2.48-.65,4.81-1.79,6.82h12.55v-4.05c.26.03.53.06.78.11l.17-.84c.54.11,1.06.27,1.57.46l-.28.78c1.19.43,2.29,1.07,3.25,1.9l.53-.62c.41.36.8.74,1.16,1.16l-.62.53c.83.96,1.47,2.06,1.9,3.25l.78-.28c.19.51.35,1.03.46,1.57l-.71.14h-3.26v12.55c2.01-1.14,4.34-1.79,6.82-1.79h0c.43,0,.85.03,1.27.06.09,0,.18.02.27.03.42.05.83.11,1.24.19,0,0,.02,0,.03,0,.42.09.82.19,1.22.32.05.01.09.03.14.04.84.27,1.65.61,2.41,1.02,0,0,.02,0,.03.01,4.32,2.35,7.25,6.93,7.25,12.19,0,7.65-6.22,13.87-13.87,13.87s-13.87-6.22-13.87-13.87c0-3.58,1.36-6.97,3.82-9.54l-3.61-3.46c-3.35,3.51-5.2,8.13-5.2,13,0,10.4,8.47,18.87,18.87,18.87s18.87-8.46,18.87-18.87c0-8-5.01-14.83-12.05-17.57Z"/>
    <rect class="cls-1" width="97.97" height="97.97"/>
  </g>
</svg>