<?xml version="1.0" encoding="UTF-8"?>
<svg id="Layer_2" data-name="Layer 2" xmlns="http://www.w3.org/2000/svg" viewBox="0 0 97.97 97.97">
  <defs>
    <style>
      .cls-1 {
        fill: none;
      }

      .cls-1, .cls-2 {
        stroke-width: 0px;
      }

      .cls-2 {
        fill: #b60c3f;
      }
    </style>
  </defs>
  <g id="Réteg_1" data-name="Réteg 1">
    <g>
      <path class="cls-2" d="M67.64,36.11h-5c0,7.53-6.13,13.66-13.66,13.66v5c10.29,0,18.66-8.37,18.66-18.66Z"/>
      <path class="cls-2" d="M74.75,36.1c0-14.21-11.56-25.76-25.76-25.76s-25.76,11.56-25.76,25.76c0,13.36,10.23,24.38,23.26,25.64v8.03h-10.45v5h10.45v10.37h5v-10.37h10.45v-5h-10.45v-8.03c13.04-1.26,23.26-12.28,23.26-25.64ZM28.22,36.1c0-11.45,9.31-20.76,20.76-20.76s20.76,9.31,20.76,20.76-9.31,20.76-20.76,20.76-20.76-9.31-20.76-20.76Z"/>
    </g>
    <rect class="cls-1" width="97.97" height="97.97"/>
  </g>
</svg>