<?xml version="1.0" encoding="UTF-8"?>
<svg id="Layer_2" data-name="Layer 2" xmlns="http://www.w3.org/2000/svg" viewBox="0 0 82.51 72.99">
  <defs>
    <style>
      .cls-1 {
        fill: #9ec775;
      }

      .cls-1, .cls-2, .cls-3 {
        stroke-width: 0px;
      }

      .cls-2 {
        fill: #b60c3f;
      }

      .cls-3 {
        fill: #fff;
      }
    </style>
  </defs>
  <g id="Réteg_1" data-name="Réteg 1">
    <g>
      <circle class="cls-2" cx="40.84" cy="36.56" r="26.43"/>
      <path class="cls-1" d="M72.75,36.56c0-17.43-14.13-31.56-31.5-31.56-13.93,0-26.02,8.93-30.1,22.23l-4.78-1.46C11.09,10.36,25.11,0,41.25,0c20.13,0,36.5,16.37,36.5,36.5l-5,.06Z"/>
      <path class="cls-1" d="M41.25,72.99c-20.12,0-36.49-16.37-36.49-36.49h5c0,17.36,14.13,31.49,31.49,31.49,13.89,0,25.99-8.91,30.09-22.17l4.78,1.48c-4.76,15.37-18.77,25.69-34.87,25.69Z"/>
      <g>
        <path class="cls-3" d="M33.59,38.71c-1.12,0-2.11-.21-2.94-.62-.84-.41-1.48-.97-1.93-1.69s-.68-1.53-.68-2.44h3.53c0,.51.18.93.53,1.25.35.32.85.48,1.49.48.43,0,.8-.08,1.1-.25.3-.16.53-.39.69-.67.16-.28.24-.6.24-.95,0-.54-.17-.98-.52-1.33-.35-.35-.85-.53-1.5-.53-.38,0-.72.06-1.01.18-.29.12-.55.27-.76.45l-1.63-2.71,3.96-2.43-.18-.31h-5.34v-3.14h9.97v3.12l-5.16,3.14-1.65-.61c.27-.08.57-.14.87-.18.31-.04.62-.06.95-.06,1.12,0,2.1.18,2.92.53.82.35,1.46.86,1.91,1.52.45.66.68,1.45.68,2.36v.24c0,.9-.23,1.7-.68,2.4-.45.7-1.09,1.25-1.92,1.65-.83.4-1.81.6-2.95.6Z"/>
        <path class="cls-3" d="M47.52,38.71c-1.16,0-2.16-.19-2.98-.56s-1.5-.88-2.02-1.53c-.52-.65-.91-1.39-1.16-2.24-.25-.84-.37-1.73-.37-2.66v-1.14c0-1.31.24-2.49.71-3.55.47-1.06,1.19-1.9,2.16-2.53.97-.63,2.19-.94,3.67-.94s2.7.31,3.66.94,1.68,1.47,2.15,2.53c.47,1.06.71,2.24.71,3.55v1.14c0,.93-.12,1.81-.37,2.66-.25.84-.63,1.59-1.15,2.24-.52.65-1.19,1.16-2.01,1.53-.82.37-1.82.56-2.98.56ZM47.52,35.33c.97,0,1.69-.34,2.16-1.02.47-.68.71-1.73.71-3.14,0-1.5-.24-2.59-.73-3.25-.48-.66-1.2-.99-2.14-.99s-1.67.33-2.16.99c-.48.66-.73,1.73-.73,3.21s.24,2.48.72,3.17c.48.69,1.2,1.03,2.17,1.03Z"/>
      </g>
      <g>
        <path class="cls-3" d="M29.61,50.07v-8.03h2.56l3.37,6.73h.37l-.22.2v-6.93h1.47v8.03h-2.58l-3.37-6.73h-.37l.22-.2v6.93h-1.45Z"/>
        <path class="cls-3" d="M38.35,50.07l2.73-8.03h2.56l2.82,8.03h-1.62l-2.38-6.96.56.24h-1.38l.57-.24-2.31,6.96h-1.56ZM40.26,47.95l.49-1.33h3.24l.49,1.33h-4.23Z"/>
        <path class="cls-3" d="M47.65,50.07v-8.08h1.56v8.08h-1.56ZM48.99,47.61v-1.35h1.56c.31,0,.57-.06.79-.19.22-.12.38-.3.5-.52.12-.22.18-.47.18-.75,0-.29-.06-.55-.18-.77-.12-.22-.28-.39-.5-.51-.22-.12-.48-.18-.79-.18h-1.56v-1.35h1.43c.67,0,1.25.11,1.72.33.47.22.83.53,1.08.94.25.41.37.89.37,1.46v.18c0,.55-.12,1.03-.37,1.44-.25.41-.61.73-1.08.95-.47.22-1.05.33-1.72.33h-1.43Z"/>
      </g>
      <polygon class="cls-1" points="75.25 40.03 67.99 32.77 71.52 29.23 75.25 32.96 78.97 29.23 82.51 32.77 75.25 40.03"/>
      <polygon class="cls-1" points="10.99 43.76 7.26 40.03 3.54 43.76 0 40.22 7.26 32.96 14.52 40.22 10.99 43.76"/>
    </g>
  </g>
</svg>