<?xml version="1.0" encoding="UTF-8"?>
<svg id="Layer_2" data-name="Layer 2" xmlns="http://www.w3.org/2000/svg" viewBox="0 0 97.97 97.97">
  <defs>
    <style>
      .cls-1 {
        fill: none;
      }

      .cls-1, .cls-2 {
        stroke-width: 0px;
      }

      .cls-2 {
        fill: #b60c3f;
      }
    </style>
  </defs>
  <g id="Réteg_1" data-name="Réteg 1">
    <g>
      <path class="cls-2" d="M84.2,13.75c-3.24-3.24-8.11-4.33-13.72-3.09-5.2,1.15-10.51,4.23-14.94,8.65h0S11.72,63.14,11.72,63.14h0c-.72.72-1.58,2.02-1.58,4.14,0,3.76,2.77,8.85,7.23,13.3,2.84,2.84,6.02,5.06,8.95,6.25,1.73.7,3.17.97,4.35.97,2.15,0,3.45-.88,4.15-1.57h0s8.59-8.59,8.59-8.59c0,0,0,0,0,0h0s35.23-35.23,35.23-35.23l-3.54-3.54-35.23,35.23c-.09.08-1.01.35-3.08-.49-2.29-.93-4.95-2.81-7.3-5.16-3.96-3.95-5.76-7.83-5.76-9.76,0-.41.09-.58.11-.6h0S59.08,22.85,59.08,22.85h0c3.76-3.76,8.2-6.36,12.48-7.31,3.88-.86,7.11-.24,9.1,1.75,4.35,4.35,1.8,14.23-5.55,21.58l3.54,3.54c9.59-9.59,12.03-22.18,5.55-28.66ZM25.97,71.99c2.84,2.84,6.02,5.06,8.95,6.25.21.09.4.14.6.22l-4.24,4.24h0c-.08.08-1.01.35-3.08-.49-2.29-.93-4.95-2.81-7.3-5.16-3.96-3.95-5.76-7.83-5.76-9.76,0-.41.09-.58.11-.6l-1.8-1.81,1.8,1.8,4.23-4.23c1.1,3.05,3.38,6.46,6.48,9.55Z"/>
      <path class="cls-2" d="M68.5,35.77l3.54,3.54c5.18-5.18,8.48-11.54,9.06-17.45l-4.98-.48c-.46,4.7-3.3,10.08-7.61,14.4Z"/>
    </g>
    <rect class="cls-1" width="97.97" height="97.97"/>
  </g>
</svg>