<?xml version="1.0" encoding="utf-8"?>
<!-- Generator: Adobe Illustrator 28.4.1, SVG Export Plug-In . SVG Version: 6.00 Build 0)  -->
<svg version="1.1" id="Layer_2_00000090993344357646889830000002405712402327192448_"
	 xmlns="http://www.w3.org/2000/svg" xmlns:xlink="http://www.w3.org/1999/xlink" x="0px" y="0px" viewBox="0 0 69.7 59.2"
	 style="enable-background:new 0 0 69.7 59.2;" xml:space="preserve">
<style type="text/css">
	.st0{fill:#B60C3F;}
</style>
<g id="Réteg_1">
	<g>
		<g>
			<path class="st0" d="M65.8,7.3c-0.5-0.6-1-1.2-1.6-1.8c-0.6-0.6-1.2-1.1-1.8-1.6C59.2,1.3,55.2,0,51.2,0h-0.3c-0.3,0-0.5,0-0.8,0
				c-4.4,0.2-8.8,2-12.2,5.4l-3,3.1l-3-3.1C28.4,2.1,24,0.2,19.6,0c-0.3,0-0.5,0-0.8,0h-0.3c-4,0-7.9,1.3-11.2,3.9
				C6.6,4.3,6,4.9,5.5,5.5C4.9,6,4.4,6.6,3.9,7.3C1.3,10.6,0,14.5,0,18.5v0.3c0,0.3,0,0.5,0,0.8c0.2,4.4,2,8.8,5.4,12.2l3.1,3
				l1.7,1.7c0.9,0.9,2.4,0.9,3.3,0l0,0c0.9-0.9,0.9-2.4,0-3.3l-1.7-1.7l-3.1-3C4,23.6,3.5,16.1,7.3,10.7c0.5-0.6,1-1.3,1.6-1.8
				s1.2-1.1,1.8-1.6C16.1,3.5,23.6,4,28.4,8.8l3,3.1l1.7,1.7c1,0.9,2.5,0.9,3.4,0l1.7-1.7l3-3.1C46.1,4,53.7,3.5,59.1,7.3
				c0.7,0.5,1.3,1,1.8,1.6s1.1,1.2,1.5,1.8c3.8,5.4,3.3,12.9-1.5,17.7l-6.4,6.4l-2.4,2.4l-4,4c-0.9,0.9-0.9,2.5,0,3.4s2.5,0.9,3.4,0
				l6.4-6.4l3.4-3.4l3.1-3c3.4-3.4,5.2-7.8,5.4-12.2c0-0.3,0-0.5,0-0.8v-0.3C69.7,14.5,68.4,10.6,65.8,7.3L65.8,7.3z"/>
			<path class="st0" d="M21.7,18.3c-0.7-0.7-2-0.7-2.7,0L18.3,19c-0.7,0.7-0.7,2,0,2.7l6.5,6.5l6.7,6.7L27.4,39l-4,4
				c-0.9,0.9-1.4,2.2-1.4,3.4s0.5,2.5,1.4,3.4l8.1,8.1c1.9,1.9,4.9,1.9,6.8,0l1.6-1.6c0.9-0.9,1-2.3,0.2-3.3
				c-0.9-1.1-2.6-1.2-3.5-0.2l-1.7,1.7l-8.1-8.1l18.2-18.2l6.3-6.3c0.8-0.8,0.8-2.2,0-3.1l-0.3-0.3c-0.8-0.8-2.2-0.8-3.1,0l-2.1,2.1
				c-2.7,2.7-6.2,4.3-10,4.5c-0.4,0-0.7,0-1.1,0c0,0,0,0-0.1,0c-4,0-7.8-1.7-10.7-4.5C23.9,20.5,21.7,18.3,21.7,18.3z"/>
		</g>
	</g>
</g>
</svg>
