<?xml version="1.0" encoding="UTF-8"?>
<svg id="Layer_2" data-name="Layer 2" xmlns="http://www.w3.org/2000/svg" viewBox="0 0 287.97 59.23">
  <defs>
    <style>
      .cls-1 {
        fill: #b60c3f;
      }

      .cls-1, .cls-2 {
        stroke-width: 0px;
      }

      .cls-2 {
        fill: #231f20;
      }
    </style>
  </defs>
  <g id="Réteg_1" data-name="Réteg 1">
    <g>
      <g>
        <path class="cls-2" d="M107.59,13.81v8.9c0,1.5-.56,2.86-1.48,3.9-1.08,1.21-2.64,1.97-4.39,1.97s-3.31-.76-4.39-1.97c-.92-1.04-1.48-2.41-1.48-3.9v-10.67h-4.79v10.67c0,2.2.66,4.23,1.8,5.93.2.3.42.6.66.88.67.81,1.45,1.51,2.33,2.09.47.31.97.59,1.48.82h0c1.34.61,2.82.94,4.39.94s3.05-.34,4.39-.94h0c.52-.23,1.01-.51,1.48-.82v4.72c0,3.24-2.63,5.87-5.87,5.87s-5.87-2.63-5.87-5.87h-4.79c0,3.72,1.9,7,4.79,8.9,1.68,1.11,3.7,1.76,5.87,1.76s4.19-.65,5.87-1.76c2.89-1.91,4.79-5.18,4.79-8.9V12.04h-4.79v1.76Z"/>
        <path class="cls-2" d="M138.5,22.71c0-.27-.01-.54-.03-.8-.25-3.4-2.1-6.35-4.79-8.12-1.68-1.1-3.69-1.74-5.84-1.74s-4.16.64-5.84,1.74c-2.69,1.76-4.53,4.71-4.79,8.1-.02.27-.03.54-.03.82s.01.55.03.82v11.99c-.02.27-.03.54-.03.82s.01.55.03.82c.26,3.39,2.1,6.34,4.79,8.1,1.68,1.1,3.69,1.74,5.84,1.74s4.17-.64,5.84-1.74c2.69-1.77,4.54-4.72,4.79-8.12.02-.26.03-.53.03-.8s-.01-.54-.03-.8v-12.02c.02-.26.03-.53.03-.8ZM133.68,36.34c0,3.23-2.62,5.84-5.84,5.84s-5.84-2.61-5.84-5.84v-13.63c0-3.23,2.62-5.84,5.84-5.84s5.84,2.61,5.84,5.84v13.63Z"/>
        <path class="cls-2" d="M235.73,13.79v.02s-.02-.02-.03-.02c-1.68-1.1-3.69-1.74-5.84-1.74s-4.16.64-5.84,1.74c-.01,0-.02.02-.03.02v-.02c-2.69,1.76-4.53,4.71-4.79,8.1v15.27c.26,3.39,2.1,6.34,4.79,8.1v-.02s.02.02.03.02c1.68,1.1,3.69,1.74,5.84,1.74s4.17-.64,5.84-1.74c.01,0,.02-.02.03-.02v.02c2.69-1.77,4.54-4.72,4.79-8.12v-15.23c-.25-3.4-2.1-6.35-4.79-8.12ZM235.7,36.34c0,3.23-2.62,5.84-5.84,5.84s-5.84-2.61-5.84-5.84v-13.63c0-3.23,2.62-5.84,5.84-5.84s5.84,2.61,5.84,5.84v13.63Z"/>
        <path class="cls-2" d="M159.77,36.34h0c0,3.23-2.62,5.84-5.84,5.84s-5.84-2.61-5.84-5.84V12.05h-4.82v24.29c0,.28.01.55.03.82.26,3.39,2.1,6.34,4.79,8.1,1.68,1.1,3.69,1.74,5.84,1.74s4.17-.64,5.84-1.74c2.69-1.77,4.54-4.72,4.79-8.12.02-.26.03-.53.03-.8V12.05h-4.82v24.29Z"/>
        <path class="cls-2" d="M206.17,42.18c-3.23,0-5.84-2.61-5.84-5.84v-8.92h0v-15.37h-4.82v24.29c0,.28.01.55.03.82.26,3.39,2.1,6.34,4.79,8.1,1.68,1.1,3.69,1.74,5.84,1.74s4.17-.64,5.84-1.74c2.68-1.75,4.51-4.68,4.79-8.05h-4.85c-.42,2.81-2.85,4.97-5.78,4.97Z"/>
        <path class="cls-2" d="M277.32,42.18c-3.23,0-5.84-2.61-5.84-5.84v-8.92s-.01,0-.02.01v-4.72h0c0-3.23,2.62-5.84,5.84-5.84s5.84,2.62,5.84,5.84-2.62,5.84-5.84,5.84v.02h-1.04v4.8h1.04c5.89,0,10.67-4.77,10.67-10.67s-4.77-10.67-10.67-10.67-10.67,4.77-10.67,10.67v13.63h.02c0,.28.01.55.03.82.26,3.39,2.1,6.34,4.79,8.1,1.68,1.1,3.69,1.74,5.84,1.74s4.17-.64,5.84-1.74c2.68-1.75,4.51-4.68,4.79-8.05h-4.85c-.42,2.81-2.85,4.97-5.78,4.97Z"/>
        <path class="cls-2" d="M253.58,34.43l-6.01-22.42-4.66,1.25,8.63,32.2c.25.92,1.08,1.56,2.04,1.56s1.79-.64,2.04-1.56l8.63-32.2-4.66-1.25-6.01,22.42Z"/>
        <path class="cls-2" d="M190.71,22.71c0-5.89-4.77-10.67-10.67-10.67s-10.67,4.77-10.67,10.67v24.29h4.82v-24.29h0c0-3.23,2.62-5.84,5.84-5.84s5.84,2.62,5.84,5.84c0,.99-.25,1.93-.69,2.75-.19.36-.42.7-.68,1.01-.03.04-.07.07-.1.11-.1.11-.2.22-.31.33-.05.04-.09.09-.14.13-.1.09-.21.18-.31.27-.05.04-.11.08-.17.12-.11.08-.22.15-.33.23-.06.04-.12.07-.18.11-.12.07-.23.13-.35.19-.06.03-.12.06-.19.09-.13.06-.26.11-.39.16-.06.02-.12.05-.18.07-.15.05-.31.09-.46.13-.05.01-.1.03-.15.04-.02,0-.05,0-.07.01-.37.07-.74.11-1.13.11v.02h-1.04v4.8h1.04c.77,0,1.51-.08,2.24-.24h0s3.77,14.08,3.77,14.08l4.66-1.25-4-14.93h0c2.44-1.96,4-4.96,4-8.33Z"/>
      </g>
      <g>
        <path class="cls-1" d="M65.85,7.26c-.48-.63-1.01-1.23-1.59-1.8-.57-.57-1.18-1.1-1.8-1.59C59.16,1.32,55.2.03,51.23,0h-.3c-.27,0-.55,0-.82.03-4.44.23-8.82,2.04-12.21,5.43l-3.05,3.05-3.05-3.05C28.42,2.06,24.04.25,19.6.03c-.27-.02-.55-.02-.82-.03h-.3c-3.97.03-7.92,1.32-11.23,3.87-.63.48-1.23,1.01-1.8,1.59-.57.57-1.1,1.18-1.59,1.8C1.32,10.56.03,14.52,0,18.48v.3c0,.27,0,.55.03.82.23,4.44,2.04,8.82,5.43,12.21l3.05,3.05,1.71,1.71c.93.93,2.43.93,3.35,0l.04-.04c.93-.93.93-2.43,0-3.35l-1.71-1.71-3.05-3.05c-4.83-4.83-5.34-12.34-1.55-17.74.46-.65.97-1.26,1.55-1.84.58-.58,1.19-1.09,1.84-1.55,5.4-3.8,12.91-3.28,17.74,1.55l3.05,3.05,1.68,1.68c.95.95,2.48.95,3.42,0l1.68-1.68,3.05-3.05c4.83-4.83,12.34-5.34,17.74-1.55.65.46,1.26.97,1.84,1.55.58.58,1.09,1.19,1.55,1.84,3.8,5.4,3.28,12.91-1.55,17.74l-6.44,6.44-2.39,2.39-4.01,4.02c-.94.94-.94,2.45,0,3.39.94.94,2.45.94,3.39,0l6.4-6.4,3.39-3.39,3.05-3.05c3.39-3.39,5.2-7.77,5.43-12.21.02-.27.02-.55.03-.82v-.3c-.03-3.97-1.32-7.92-3.87-11.23Z"/>
        <path class="cls-1" d="M21.67,18.29c-.74-.74-1.95-.74-2.69,0l-.7.7c-.74.74-.74,1.95,0,2.69l6.51,6.51,6.68,6.68-4.1,4.1-4,4c-.94.94-1.4,2.16-1.4,3.39s.47,2.45,1.4,3.39l8.09,8.09c1.87,1.87,4.91,1.87,6.78,0l1.62-1.62c.89-.88,1.03-2.32.23-3.29-.91-1.11-2.56-1.16-3.55-.17l-1.69,1.69-8.09-8.1,18.16-18.16,6.33-6.33c.84-.84.84-2.21,0-3.06l-.33-.33c-.84-.84-2.21-.84-3.06,0l-2.07,2.07c-2.68,2.68-6.24,4.34-10.02,4.51-.37.02-.74.02-1.11.02-.03,0-.05,0-.08,0-4.01-.01-7.83-1.7-10.66-4.53l-2.25-2.25Z"/>
      </g>
    </g>
  </g>
</svg>